# xmcd
#
# Track frame offsets: 
#        150
#        20820
#        79685
#        94358
#        110501
#        136339
#        170516
#        185954
#
# Disc length: 3291 seconds
#
# Revision: 2
# Processed by: cddbd v1.5.2PL0 Copyright (c) Steve Scherf et al.
# Submitted via: ExactAudioCopyFreeDBPlugin 1.0
#
DISCID=6f0cd908
DTITLE=The Isley Brothers - The Isleys Live
DYEAR=1973
DGENRE=Rhythm and Blues
TTITLE0=Work to Do
TTITLE1=It's Too Late
TTITLE2=It's Your Thing
TTITLE3=Pop That Thang
TTITLE4=Love the One You're With
TTITLE5=Lay Lady Lay
TTITLE6=Lay-Away
TTITLE7=Ohio - Machine Gun
EXTD=
EXTT0=
EXTT1=
EXTT2=
EXTT3=
EXTT4=
EXTT5=
EXTT6=
EXTT7=
PLAYORDER=
